<svg width="352" height="77" viewBox="0 0 352 77" fill="none" xmlns="http://www.w3.org/2000/svg">
<path d="M351 34C351 35.9704 349.971 38.0172 347.738 40.125C345.505 42.2328 342.157 44.3135 337.754 46.3247C328.953 50.3444 316.155 53.9895 300.261 57.0598C268.491 63.1972 224.557 67 176 67C127.443 67 83.5092 63.1972 51.7389 57.0598C35.8455 53.9895 23.0473 50.3444 14.2464 46.3247C9.84292 44.3135 6.49482 42.2328 4.26217 40.125C2.02944 38.0172 1 35.9704 1 34C1 32.0296 2.02944 29.9828 4.26217 27.875C6.49482 25.7672 9.84292 23.6865 14.2464 21.6753C23.0473 17.6556 35.8455 14.0105 51.7389 10.9402C83.5092 4.80277 127.443 1 176 1C224.557 1 268.491 4.80277 300.261 10.9402C316.155 14.0105 328.953 17.6556 337.754 21.6753C342.157 23.6865 345.505 25.7672 347.738 27.875C349.971 29.9828 351 32.0296 351 34Z" stroke="url(#paint0_linear_6_1190)" stroke-width="2"/>
<rect x="156" y="59" width="38.5714" height="18" rx="9" fill="#707B81"/>
<path d="M188.354 68.3536C188.549 68.1583 188.549 67.8417 188.354 67.6464L185.172 64.4645C184.976 64.2692 184.66 64.2692 184.464 64.4645C184.269 64.6597 184.269 64.9763 184.464 65.1716L187.293 68L184.464 70.8284C184.269 71.0237 184.269 71.3403 184.464 71.5355C184.66 71.7308 184.976 71.7308 185.172 71.5355L188.354 68.3536ZM188 67.5H187V68.5H188V67.5Z" fill="white"/>
<path d="M163.646 68.3536C163.451 68.1583 163.451 67.8417 163.646 67.6464L166.828 64.4645C167.024 64.2692 167.34 64.2692 167.536 64.4645C167.731 64.6597 167.731 64.9763 167.536 65.1716L164.707 68L167.536 70.8284C167.731 71.0237 167.731 71.3403 167.536 71.5355C167.34 71.7308 167.024 71.7308 166.828 71.5355L163.646 68.3536ZM164 67.5H165V68.5H164V67.5Z" fill="white"/>
<defs>
<linearGradient id="paint0_linear_6_1190" x1="176" y1="27.2" x2="176" y2="68" gradientUnits="userSpaceOnUse">
<stop stop-opacity="0"/>
<stop offset="1" stop-color="#2363F6"/>
</linearGradient>
</defs>
</svg>
